<svg xmlns="http://www.w3.org/2000/svg" xmlns:xlink="http://www.w3.org/1999/xlink" width="500" zoomAndPan="magnify" viewBox="0 0 375 374.999991" height="500" preserveAspectRatio="xMidYMid meet" version="1.0"><defs><clipPath id="70d946111e"><path d="M 18.234375 47.644531 L 356.484375 47.644531 L 356.484375 327.394531 L 18.234375 327.394531 Z M 18.234375 47.644531 " clip-rule="nonzero"/></clipPath></defs><g clip-path="url(#70d946111e)"><path fill="#514e80" d="M 331.074219 193.1875 L 330.175781 193.789062 L 328.375 194.089844 L 327.773438 194.988281 L 327.023438 194.839844 L 326.574219 194.085938 L 324.472656 194.839844 L 323.421875 193.789062 L 321.921875 193.039062 L 321.46875 191.835938 L 320.871094 191.6875 L 320.570312 191.085938 L 317.269531 190.183594 L 316.667969 189.734375 L 315.769531 188.234375 L 316.96875 187.933594 L 317.570312 187.035156 L 317.71875 183.582031 L 317.269531 181.929688 L 317.417969 179.980469 L 316.96875 179.078125 L 315.617188 178.929688 L 314.71875 179.378906 L 314.265625 179.078125 L 314.417969 178.328125 L 314.265625 176.378906 L 314.71875 175.628906 L 316.21875 174.726562 L 317.71875 173.226562 L 316.820312 172.027344 L 316.820312 170.976562 L 317.867188 168.574219 L 318.46875 167.972656 L 318.320312 166.324219 L 318.617188 165.570312 L 318.917969 163.472656 L 317.867188 161.671875 L 317.867188 160.917969 L 316.367188 159.417969 L 315.015625 159.117188 L 313.066406 157.46875 L 312.464844 156.117188 L 311.566406 155.667969 L 310.964844 154.917969 L 309.464844 154.617188 L 308.261719 155.515625 L 306.914062 155.816406 L 305.261719 155.816406 L 304.511719 156.265625 L 303.910156 157.46875 L 303.609375 158.820312 L 303.3125 159.117188 L 302.261719 158.667969 L 301.511719 158.066406 L 301.210938 157.015625 L 300.160156 157.316406 L 300.007812 158.367188 L 298.359375 159.269531 L 297.757812 158.367188 L 297.15625 157.617188 L 295.957031 157.617188 L 294.304688 156.417969 L 294.15625 155.964844 L 292.957031 155.964844 L 291.90625 156.265625 L 291.453125 155.214844 L 289.503906 154.316406 L 288.753906 154.316406 L 289.203125 155.816406 L 288.902344 156.566406 L 288.753906 157.917969 L 287.851562 158.667969 L 287.550781 159.71875 L 288.003906 160.621094 L 286.800781 160.917969 L 285.902344 160.46875 L 284.699219 159.117188 L 283.351562 158.519531 L 283.199219 157.917969 L 281.546875 157.765625 L 281.097656 157.167969 L 279.746094 157.316406 L 278.695312 156.417969 L 278.097656 156.867188 L 277.046875 156.867188 L 277.046875 156.417969 L 278.097656 155.667969 L 278.097656 155.214844 L 277.496094 154.015625 L 277.648438 152.664062 L 276.597656 151.914062 L 275.546875 151.765625 L 274.496094 152.363281 L 273.144531 152.363281 L 273.445312 150.5625 L 273.144531 149.0625 L 272.695312 147.863281 L 271.042969 147.863281 L 270.140625 146.960938 L 269.242188 147.113281 L 268.191406 146.960938 L 267.289062 147.5625 L 266.691406 146.660156 L 263.390625 145.609375 L 262.636719 145.308594 L 261.886719 145.460938 L 259.488281 145.160156 L 258.136719 146.359375 L 257.535156 145.3125 L 255.585938 145.011719 L 254.234375 144.410156 L 253.785156 143.808594 L 253.632812 142.609375 L 251.683594 142.460938 L 250.632812 141.109375 L 250.03125 143.808594 L 251.832031 144.261719 L 251.832031 145.460938 L 252.734375 145.761719 L 253.03125 146.8125 L 252.734375 148.011719 L 252.132812 148.914062 L 252.132812 149.8125 L 251.082031 150.261719 L 250.929688 150.863281 L 249.582031 150.863281 L 248.980469 152.0625 L 249.730469 152.363281 L 250.632812 154.617188 L 250.632812 155.964844 L 250.03125 156.566406 L 250.179688 158.96875 L 250.632812 159.71875 L 250.78125 160.617188 L 250.183594 161.371094 L 249.132812 161.070312 L 248.230469 162.121094 L 247.179688 161.96875 L 245.679688 163.621094 L 245.230469 165.570312 L 245.980469 166.472656 L 245.828125 167.671875 L 245.378906 168.722656 L 245.378906 170.375 L 244.027344 170.824219 L 243.128906 170.222656 L 241.925781 170.222656 L 241.328125 169.773438 L 240.277344 170.523438 L 239.824219 170.074219 L 239.824219 169.171875 L 239.074219 168.722656 L 238.324219 167.824219 L 237.273438 167.523438 L 236.972656 166.921875 L 235.773438 166.023438 L 234.871094 166.472656 L 234.273438 167.074219 L 232.171875 167.824219 L 232.171875 168.574219 L 233.824219 168.875 L 233.824219 169.773438 L 233.222656 169.625 L 232.472656 170.222656 L 231.570312 172.773438 L 231.871094 173.226562 L 231.722656 174.125 L 231.121094 175.175781 L 231.570312 175.925781 L 231.421875 177.128906 L 230.820312 177.128906 L 230.371094 176.378906 L 229.621094 176.527344 L 229.46875 177.726562 L 229.621094 178.628906 L 228.117188 178.179688 L 227.96875 179.679688 L 228.269531 179.980469 L 228.269531 181.628906 L 230.371094 181.628906 L 230.21875 183.128906 L 231.871094 182.980469 L 231.269531 184.78125 L 232.019531 184.933594 L 233.070312 184.933594 L 233.222656 185.832031 L 233.820312 186.582031 L 234.871094 187.03125 L 235.621094 187.785156 L 235.472656 188.683594 L 234.121094 188.234375 L 231.269531 189.285156 L 230.667969 190.933594 L 229.769531 192.585938 L 229.769531 193.1875 L 229.167969 194.238281 L 227.667969 194.386719 L 226.917969 194.988281 L 226.765625 196.339844 L 227.367188 197.386719 L 227.519531 198.738281 L 226.769531 200.390625 L 226.015625 200.238281 L 223.765625 201.441406 L 223.316406 200.988281 L 223.164062 200.238281 L 221.363281 200.539062 L 220.914062 202.492188 L 221.515625 202.941406 L 221.515625 203.691406 L 220.464844 203.242188 L 220.3125 203.992188 L 220.765625 205.042969 L 219.863281 205.34375 L 218.511719 205.191406 L 218.363281 205.792969 L 219.5625 206.09375 L 219.414062 207.441406 L 218.210938 208.492188 L 218.511719 209.542969 L 219.5625 209.84375 L 220.164062 210.894531 L 219.414062 211.644531 L 218.210938 210.894531 L 217.761719 211.195312 L 217.910156 212.09375 L 217.011719 212.695312 L 215.960938 212.996094 L 214.761719 212.09375 L 214.761719 210.894531 L 213.558594 211.195312 L 211.757812 210.894531 L 211.910156 210.292969 L 212.960938 209.542969 L 212.960938 208.34375 L 213.558594 207.894531 L 213.261719 206.992188 L 212.058594 206.84375 L 211.757812 205.640625 L 211.308594 204.742188 L 210.859375 205.640625 L 210.257812 204.589844 L 209.65625 205.191406 L 206.65625 206.542969 L 206.355469 207.59375 L 206.207031 209.242188 L 205.457031 210.59375 L 204.855469 210.746094 L 205.304688 212.246094 L 204.105469 212.09375 L 203.203125 213.296875 L 202.605469 215.246094 L 201.703125 215.246094 L 200.804688 215.847656 L 201.554688 217.046875 L 201.253906 217.648438 L 199.152344 217.648438 L 198.851562 216.746094 L 198.101562 216.296875 L 197.800781 217.199219 L 196.75 217.046875 L 196.449219 216.148438 L 194.949219 216.296875 L 194.5 217.5 L 193.597656 219.148438 L 194.949219 219.449219 L 195.550781 220.050781 L 194.800781 220.648438 L 194.800781 222.601562 L 193.449219 222.753906 L 193.449219 224.855469 L 193.300781 226.957031 L 193.300781 227.855469 L 192.699219 227.855469 L 191.949219 228.90625 L 190.746094 228.605469 L 188.945312 229.207031 L 188.648438 229.957031 L 187.597656 229.507812 L 187.144531 228.605469 L 186.09375 228.605469 L 185.945312 230.40625 L 187.144531 230.707031 L 188.046875 231.757812 L 187.59375 232.808594 L 186.996094 233.410156 L 186.09375 233.710938 L 185.34375 233.558594 L 185.195312 235.058594 L 184.144531 237.011719 L 184.144531 238.0625 L 182.941406 237.761719 L 182.644531 236.410156 L 181.59375 235.960938 L 181.441406 234.757812 L 180.542969 234.757812 L 180.390625 235.960938 L 179.792969 236.859375 L 179.042969 237.011719 L 179.042969 235.511719 L 178.742188 234.460938 L 177.242188 234.609375 L 177.242188 236.5625 L 175.738281 236.5625 L 175.589844 238.511719 L 175.890625 238.8125 L 174.238281 239.113281 L 173.335938 239.5625 L 172.738281 241.363281 L 169.285156 241.664062 L 169.734375 243.914062 L 170.488281 244.214844 L 170.785156 245.117188 L 169.886719 245.265625 L 169.886719 246.167969 L 170.785156 246.015625 L 171.085938 246.464844 L 170.035156 247.066406 L 169.285156 247.066406 L 169.4375 248.71875 L 171.085938 248.566406 L 170.636719 251.117188 L 172.4375 251.417969 L 172.585938 252.320312 L 171.835938 252.769531 L 171.386719 253.96875 L 170.1875 253.96875 L 169.886719 252.320312 L 168.535156 252.46875 L 168.6875 253.070312 L 167.035156 253.070312 L 166.882812 252.019531 L 165.082031 251.71875 L 163.28125 252.019531 L 162.832031 252.320312 L 163.132812 253.820312 L 162.382812 254.421875 L 162.382812 252.621094 L 161.332031 252.167969 L 160.730469 251.570312 L 159.980469 251.71875 L 158.929688 253.070312 L 158.328125 252.167969 L 156.378906 252.167969 L 155.777344 252.769531 L 154.578125 252.769531 L 152.925781 253.371094 L 152.027344 252.46875 L 151.277344 252.167969 L 151.425781 249.917969 L 149.925781 250.519531 L 149.773438 249.769531 L 149.023438 249.167969 L 148.425781 249.320312 L 147.972656 251.417969 L 146.773438 250.96875 L 146.324219 249.769531 L 144.972656 249.167969 L 143.773438 249.769531 L 143.019531 249.617188 L 142.570312 248.566406 L 142.570312 247.816406 L 141.820312 247.515625 L 140.769531 246.765625 L 140.320312 247.667969 L 139.867188 249.167969 L 139.867188 250.519531 L 138.367188 250.820312 L 138.667969 252.167969 L 139.867188 252.621094 L 139.867188 253.21875 L 139.570312 254.269531 L 140.320312 254.722656 L 140.621094 255.621094 L 141.667969 255.621094 L 141.96875 258.171875 L 140.46875 259.375 L 140.621094 260.425781 L 141.519531 261.625 L 141.519531 262.375 L 142.269531 262.375 L 142.570312 264.175781 L 141.21875 265.375 L 141.519531 265.976562 L 142.269531 265.828125 L 142.121094 268.078125 L 142.570312 268.828125 L 141.070312 269.429688 L 140.769531 268.828125 L 139.71875 268.679688 L 139.71875 267.175781 L 138.066406 267.027344 L 138.066406 268.828125 L 136.417969 268.828125 L 135.816406 269.429688 L 134.917969 269.730469 L 134.765625 268.828125 L 133.867188 267.925781 L 132.816406 268.226562 L 132.363281 268.828125 L 130.863281 268.378906 L 129.964844 268.679688 L 128.761719 269.277344 L 126.359375 269.277344 L 126.359375 271.230469 L 126.660156 271.527344 L 126.210938 272.730469 L 125.609375 273.332031 L 124.558594 273.179688 L 124.109375 274.082031 L 122.160156 274.082031 L 122.609375 272.878906 L 121.707031 273.179688 L 120.359375 272.730469 L 120.359375 271.828125 L 119.007812 271.230469 L 118.558594 270.628906 L 118.558594 269.578125 L 116.605469 269.878906 L 114.804688 269.578125 L 114.054688 270.328125 L 113.304688 270.027344 L 112.703125 270.328125 L 112.101562 269.878906 L 111.652344 270.476562 L 112.703125 271.378906 L 113.304688 271.378906 L 113.152344 272.578125 L 112.554688 272.429688 L 111.050781 273.480469 L 111.203125 276.480469 L 111.503906 277.230469 L 108.652344 277.082031 L 108.5 277.53125 L 105.5 278.132812 L 103.847656 279.484375 L 102.199219 279.484375 L 102.199219 281.285156 L 101.148438 281.734375 L 100.695312 282.933594 L 102.046875 283.835938 L 100.847656 284.4375 L 99.945312 284.285156 L 99.796875 285.1875 L 98.894531 285.785156 L 97.09375 286.535156 L 96.492188 286.238281 L 96.792969 284.886719 L 96.195312 284.734375 L 96.195312 283.085938 L 93.941406 283.234375 L 93.191406 281.882812 L 92.59375 282.183594 L 92.59375 283.085938 L 92.890625 284.285156 L 91.691406 284.585938 L 91.089844 285.1875 L 90.039062 285.335938 L 89.742188 286.238281 L 89.742188 287.289062 L 89.441406 287.585938 L 87.1875 286.386719 L 86.136719 287.4375 L 84.9375 286.835938 L 84.9375 287.886719 L 85.386719 288.488281 L 84.335938 288.789062 L 84.636719 289.839844 L 85.386719 288.636719 L 85.839844 288.636719 L 85.6875 289.839844 L 86.738281 290.890625 L 87.488281 290.738281 L 87.640625 292.988281 L 88.539062 292.839844 L 88.691406 293.441406 L 87.941406 294.492188 L 87.789062 293.441406 L 87.339844 293.589844 L 86.890625 295.089844 L 87.339844 295.542969 L 87.941406 297.640625 L 87.039062 298.242188 L 87.339844 298.84375 L 88.390625 297.941406 L 89.140625 297.644531 L 89.589844 298.394531 L 90.792969 298.09375 L 90.941406 299.144531 L 93.492188 299.59375 L 94.394531 300.644531 L 94.242188 301.09375 L 94.542969 302.144531 L 93.941406 302.445312 L 93.644531 304.097656 L 93.941406 305.296875 L 93.644531 306.496094 L 92.59375 305.746094 L 91.390625 305.445312 L 90.191406 306.199219 L 88.839844 307.546875 L 89.589844 308.597656 L 90.492188 308 L 91.691406 307.699219 L 92.742188 308.148438 L 92.59375 309.199219 L 91.992188 310.25 L 91.992188 310.851562 L 91.390625 312.199219 L 89.589844 314.453125 L 89.890625 315.503906 L 88.691406 315.503906 L 88.089844 316.101562 L 88.089844 316.703125 L 89.441406 316.703125 L 88.691406 318.203125 L 88.992188 318.804688 L 88.539062 319.855469 L 87.941406 320.304688 L 87.039062 320.003906 L 86.890625 320.605469 L 85.539062 321.355469 L 84.789062 320.757812 L 83.585938 321.054688 L 83.136719 320.457031 L 83.4375 319.554688 L 82.535156 319.554688 L 82.234375 320.457031 L 81.636719 320.753906 L 80.433594 320.90625 L 80.136719 321.507812 L 79.085938 321.957031 L 79.382812 323.007812 L 79.085938 323.90625 L 77.582031 324.359375 L 78.785156 325.109375 L 76.832031 326.160156 L 75.183594 326.308594 L 74.730469 327.058594 L 73.679688 326.910156 L 72.480469 326.007812 L 72.332031 325.410156 L 72.480469 324.660156 L 72.332031 323.457031 L 71.730469 323.15625 L 71.878906 322.558594 L 71.28125 321.207031 L 69.78125 321.207031 L 68.578125 320.757812 L 68.878906 320.007812 L 67.976562 318.804688 L 66.929688 320.304688 L 66.628906 321.355469 L 66.175781 321.207031 L 64.828125 321.957031 L 64.375 321.65625 L 63.183594 321.65625 L 62.882812 322.105469 L 61.53125 322.105469 L 60.929688 321.808594 L 60.332031 321.957031 L 59.28125 321.058594 L 59.730469 320.457031 L 59.128906 318.65625 L 58.230469 316.40625 L 57.628906 316.105469 L 56.878906 314.601562 L 56.578125 314.003906 L 55.078125 313.253906 L 53.425781 312.800781 L 53.277344 311.75 L 52.675781 311 L 52.675781 309.652344 L 52.226562 308.601562 L 51.175781 307.699219 L 51.625 307.097656 L 50.875 303.496094 L 50.425781 301.695312 L 49.523438 299.59375 L 49.074219 297.492188 L 48.625 296.59375 L 48.773438 295.992188 L 48.324219 294.792969 L 47.574219 294.640625 L 47.875 293.589844 L 47.421875 293.140625 L 46.972656 291.039062 L 46.074219 289.238281 L 45.773438 288.1875 L 45.171875 286.988281 L 46.222656 286.085938 L 46.671875 287.4375 L 46.972656 287.4375 L 46.523438 285.789062 L 45.773438 285.1875 L 45.472656 284.4375 L 46.371094 284.285156 L 46.824219 283.535156 L 46.074219 282.636719 L 46.074219 280.683594 L 45.023438 278.882812 L 45.023438 277.230469 L 45.472656 275.582031 L 44.570312 275.132812 L 44.421875 272.878906 L 44.871094 271.980469 L 43.972656 271.378906 L 44.273438 270.929688 L 43.972656 269.578125 L 44.421875 269.128906 L 44.574219 267.925781 L 43.820312 267.628906 L 44.121094 266.875 L 43.820312 266.277344 L 43.070312 266.425781 L 43.070312 265.226562 L 43.820312 265.828125 L 44.273438 264.777344 L 44.121094 262.675781 L 43.671875 262.074219 L 42.621094 258.324219 L 41.570312 255.921875 L 40.820312 255.769531 L 40.667969 254.871094 L 41.570312 254.269531 L 42.019531 255.019531 L 42.472656 253.667969 L 41.421875 253.070312 L 41.570312 252.167969 L 40.96875 250.816406 L 39.769531 250.667969 L 39.320312 249.917969 L 40.070312 249.617188 L 40.070312 247.667969 L 40.371094 247.214844 L 39.917969 245.414062 L 38.269531 243.765625 L 38.269531 242.863281 L 39.019531 242.863281 L 39.167969 241.8125 L 38.417969 241.363281 L 37.667969 239.863281 L 37.96875 239.261719 L 37.519531 238.660156 L 37.066406 237.609375 L 37.96875 236.710938 L 37.667969 235.507812 L 37.066406 233.410156 L 36.46875 232.359375 L 35.867188 230.105469 L 35.417969 229.054688 L 34.667969 228.457031 L 34.667969 227.105469 L 33.617188 226.65625 L 33.617188 225.605469 L 34.066406 225.152344 L 33.316406 224.703125 L 32.867188 223.203125 L 33.765625 222.902344 L 31.964844 221.851562 L 32.414062 220.953125 L 32.117188 219.902344 L 31.664062 219.601562 L 31.214844 218.550781 L 31.664062 218.25 L 31.964844 217.347656 L 31.664062 215.847656 L 30.613281 214.796875 L 30.164062 214.5 L 29.863281 211.945312 L 30.914062 212.097656 L 31.363281 213.449219 L 32.566406 213.449219 L 34.816406 214.347656 L 35.71875 214.199219 L 34.96875 213.296875 L 35.265625 212.546875 L 33.917969 212.699219 L 32.867188 211.945312 L 32.117188 212.097656 L 31.363281 211.195312 L 30.464844 209.847656 L 29.863281 209.09375 L 28.964844 208.945312 L 29.414062 208.042969 L 29.265625 207.292969 L 28.664062 206.996094 L 28.511719 205.195312 L 28.0625 204.441406 L 28.8125 201.589844 L 29.5625 200.992188 L 29.113281 199.941406 L 28.0625 197.691406 L 27.761719 196.640625 L 27.164062 196.488281 L 26.5625 194.085938 L 26.863281 193.035156 L 27.011719 191.386719 L 26.863281 189.886719 L 27.460938 189.433594 L 28.363281 189.433594 L 28.964844 189.886719 L 30.164062 188.382812 L 30.765625 189.585938 L 31.363281 190.035156 L 31.816406 189.136719 L 31.515625 186.882812 L 30.164062 187.632812 L 29.414062 187.335938 L 28.664062 185.832031 L 28.664062 185.082031 L 29.261719 184.78125 L 30.765625 184.78125 L 30.914062 184.332031 L 30.015625 183.132812 L 30.613281 182.082031 L 31.363281 182.53125 L 32.566406 182.230469 L 33.164062 181.78125 L 32.566406 180.429688 L 32.566406 179.679688 L 32.113281 178.328125 L 30.914062 178.328125 L 30.613281 179.679688 L 29.113281 180.878906 L 26.710938 180.730469 L 26.113281 182.832031 L 26.113281 184.03125 L 25.210938 183.730469 L 24.3125 182.230469 L 24.761719 181.78125 L 24.761719 180.730469 L 25.8125 179.378906 L 25.210938 179.078125 L 25.363281 176.828125 L 25.0625 175.476562 L 23.710938 174.425781 L 23.5625 173.828125 L 24.160156 173.226562 L 23.410156 172.476562 L 23.261719 171.273438 L 23.558594 169.925781 L 23.558594 167.671875 L 24.160156 166.472656 L 22.511719 164.519531 L 22.660156 162.871094 L 21.910156 161.070312 L 22.359375 160.320312 L 23.410156 159.570312 L 21.761719 158.367188 L 21.308594 157.917969 L 20.859375 155.964844 L 20.707031 155.214844 L 21.460938 154.765625 L 21.308594 153.714844 L 20.707031 153.113281 L 20.410156 151.164062 L 20.558594 150.261719 L 19.660156 148.3125 L 19.507812 146.210938 L 19.359375 145.460938 L 18.15625 144.710938 L 18.15625 143.511719 L 18.90625 143.808594 L 19.359375 143.210938 L 19.359375 142.007812 L 19.207031 140.808594 L 18.757812 140.207031 L 19.65625 139.15625 L 20.859375 138.40625 L 21.007812 137.808594 L 20.707031 135.554688 L 20.410156 134.355469 L 21.160156 133.753906 L 21.757812 132.253906 L 21.609375 131.351562 L 23.710938 131.652344 L 24.308594 130.753906 L 25.359375 130.453125 L 25.660156 129.253906 L 26.261719 128.203125 L 27.164062 128.203125 L 27.761719 127.453125 L 29.566406 127.601562 L 31.214844 128.050781 L 31.515625 129.402344 L 31.816406 129.550781 L 31.964844 129.851562 L 31.816406 130.152344 L 31.816406 130.453125 L 31.363281 131.652344 L 31.816406 132.402344 L 32.566406 132.105469 L 32.714844 131.652344 L 32.714844 131.503906 L 33.167969 131.351562 L 33.167969 131.652344 L 32.867188 132.402344 L 34.367188 134.203125 L 34.816406 134.355469 L 34.816406 133.003906 L 36.019531 133.152344 L 36.769531 133.453125 L 36.917969 133.605469 L 37.070312 133.605469 L 37.519531 133.90625 L 37.671875 133.90625 L 38.121094 133.605469 L 38.421875 133.90625 L 39.472656 134.503906 L 39.621094 134.804688 L 40.070312 134.957031 L 40.671875 134.503906 L 40.523438 133.90625 L 41.273438 133.304688 L 41.421875 132.703125 L 41.273438 131.953125 L 42.171875 131.652344 L 43.222656 131.652344 L 43.523438 131.203125 L 44.574219 130.601562 L 44.574219 128.800781 L 45.175781 128.203125 L 47.875 128.800781 L 49.976562 128.5 L 49.675781 126.101562 L 49.976562 125.199219 L 50.425781 124.898438 L 49.976562 123.25 L 49.976562 122.5 L 49.527344 120.546875 L 48.476562 120.996094 L 48.777344 119.796875 L 49.828125 119.195312 L 50.878906 116.796875 L 52.078125 115.59375 L 51.925781 114.84375 L 52.976562 113.644531 L 52.226562 113.492188 L 52.378906 112.59375 L 52.226562 111.691406 L 50.578125 111.242188 L 49.976562 109.890625 L 49.074219 109.140625 L 49.074219 108.691406 L 50.578125 108.242188 L 51.175781 106.890625 L 51.328125 105.988281 L 52.226562 105.839844 L 52.828125 107.191406 L 52.527344 107.640625 L 52.976562 108.691406 L 54.179688 107.789062 L 54.78125 107.941406 L 55.53125 108.992188 L 56.730469 108.992188 L 58.082031 109.890625 L 58.679688 111.992188 L 59.882812 112.59375 L 61.234375 111.992188 L 62.734375 112.144531 L 63.183594 112.445312 L 64.835938 110.941406 L 65.585938 110.941406 L 67.234375 110.042969 L 67.234375 108.542969 L 67.085938 107.789062 L 66.335938 107.789062 L 66.1875 106.890625 L 67.085938 106.589844 L 67.988281 106.890625 L 68.4375 105.691406 L 69.039062 105.238281 L 70.238281 105.539062 L 71.4375 104.789062 L 71.140625 103.589844 L 71.140625 101.789062 L 71.289062 100.4375 L 70.6875 100.136719 L 70.6875 98.484375 L 70.089844 97.136719 L 69.339844 96.386719 L 69.636719 94.132812 L 67.238281 93.683594 L 66.035156 93.535156 L 65.585938 92.484375 L 64.6875 92.632812 L 63.933594 91.730469 L 63.183594 91.730469 L 62.882812 90.980469 L 63.03125 89.78125 L 62.734375 88.878906 L 61.53125 88.429688 L 60.933594 89.03125 L 59.429688 88.128906 L 58.230469 88.128906 L 57.628906 86.628906 L 56.578125 86.628906 L 56.578125 86.03125 L 57.328125 85.578125 L 57.929688 86.480469 L 58.679688 86.628906 L 58.53125 87.53125 L 60.480469 86.78125 L 61.832031 86.78125 L 62.734375 87.378906 L 63.183594 86.78125 L 62.882812 86.03125 L 64.535156 86.179688 L 65.132812 85.429688 L 66.183594 85.878906 L 66.183594 83.628906 L 66.785156 82.726562 L 66.632812 81.675781 L 67.683594 81.527344 L 69.035156 81.828125 L 70.835938 80.925781 L 71.4375 80.328125 L 71.738281 78.226562 L 71.738281 76.875 L 72.039062 76.125 L 72.789062 75.972656 L 73.988281 75.222656 L 75.640625 74.625 L 75.9375 73.273438 L 76.390625 72.222656 L 76.839844 73.273438 L 78.492188 73.574219 L 79.390625 73.121094 L 80.140625 73.421875 L 81.191406 72.824219 L 82.691406 73.273438 L 84.34375 72.972656 L 84.792969 72.523438 L 86.144531 72.222656 L 87.046875 71.621094 L 87.347656 69.671875 L 86.445312 69.371094 L 86.296875 68.46875 L 85.542969 68.769531 L 84.644531 69.820312 L 84.042969 69.820312 L 83.292969 69.21875 L 82.09375 70.121094 L 81.191406 68.769531 L 79.089844 68.921875 L 76.390625 68.769531 L 75.488281 69.21875 L 74.589844 69.070312 L 73.6875 69.519531 L 72.9375 69.519531 L 72.488281 70.269531 L 70.988281 70.871094 L 70.988281 70.421875 L 67.835938 71.621094 L 67.382812 70.871094 L 66.785156 69.070312 L 66.332031 67.121094 L 65.582031 66.820312 L 64.832031 65.917969 L 65.285156 65.46875 L 66.484375 65.167969 L 67.234375 65.46875 L 67.835938 65.167969 L 68.886719 65.019531 L 69.335938 63.96875 L 69.335938 62.464844 L 69.035156 62.015625 L 67.234375 60.664062 L 66.632812 59.765625 L 67.085938 59.316406 L 66.484375 57.664062 L 65.734375 57.0625 L 67.085938 56.464844 L 68.585938 56.464844 L 69.484375 55.714844 L 70.386719 55.5625 L 72.636719 54.210938 L 74.4375 53.460938 L 75.488281 52.710938 L 79.542969 51.359375 L 80.59375 51.660156 L 81.792969 52.5625 L 85.542969 52.109375 L 85.996094 50.761719 L 87.796875 50.308594 L 89.148438 49.109375 L 89.445312 48.359375 L 91.398438 47.910156 L 91.847656 48.507812 L 91.699219 50.011719 L 92.148438 50.761719 L 92.898438 50.761719 L 93.800781 51.359375 L 94.699219 52.261719 L 95.148438 53.3125 L 94.851562 54.363281 L 94.550781 57.214844 L 94.25 57.8125 L 94.398438 59.164062 L 94.851562 59.617188 L 94.550781 61.265625 L 95.152344 61.714844 L 96.203125 61.714844 L 96.652344 63.066406 L 97.550781 63.21875 L 97.703125 64.117188 L 100.554688 64.566406 L 102.054688 65.46875 L 103.253906 65.917969 L 106.40625 66.519531 L 107.457031 66.519531 L 109.109375 65.617188 L 110.609375 65.617188 L 111.660156 66.519531 L 113.910156 67.121094 L 115.113281 67.871094 L 115.410156 68.167969 L 117.0625 68.46875 L 118.261719 70.722656 L 119.015625 72.671875 L 119.914062 73.574219 L 122.316406 74.625 L 123.667969 75.375 L 124.117188 75.074219 L 125.015625 75.523438 L 126.96875 75.222656 L 127.117188 75.972656 L 129.21875 76.125 L 129.519531 75.675781 L 130.421875 76.425781 L 133.871094 76.125 L 136.125 76.425781 L 137.171875 77.023438 L 138.523438 76.722656 L 138.976562 76.125 L 140.027344 76.125 L 140.476562 76.574219 L 142.277344 76.722656 L 143.628906 76.125 L 145.277344 76.125 L 145.878906 76.425781 L 147.53125 76.273438 L 148.878906 76.574219 L 150.082031 76.425781 L 151.132812 75.824219 L 152.332031 76.273438 L 154.433594 76.125 L 155.035156 76.875 L 157.136719 77.324219 L 157.886719 77.925781 L 159.835938 77.023438 L 160.136719 77.625 L 161.035156 80.328125 L 161.636719 80.777344 L 162.238281 81.976562 L 161.636719 83.179688 L 162.539062 83.628906 L 162.539062 85.878906 L 160.886719 85.578125 L 160.4375 86.179688 L 161.488281 87.230469 L 161.335938 87.832031 L 162.6875 88.730469 L 163.289062 89.480469 L 166.738281 89.332031 L 167.339844 90.082031 L 170.640625 89.929688 L 171.242188 90.082031 L 172.59375 89.332031 L 172.59375 88.730469 L 173.492188 88.730469 L 174.394531 88.429688 L 174.542969 87.378906 L 175.292969 86.78125 L 175.59375 85.128906 L 175.894531 84.679688 L 177.394531 85.128906 L 178.746094 84.378906 L 181.296875 84.980469 L 181.746094 84.378906 L 181.746094 83.328125 L 182.199219 82.578125 L 182.796875 82.578125 L 182.949219 80.925781 L 181.449219 78.976562 L 181.597656 78.523438 L 183.25 77.175781 L 185.800781 75.375 L 186.25 73.871094 L 187.902344 72.820312 L 188.203125 71.773438 L 187 70.421875 L 188.050781 69.820312 L 187.75 68.621094 L 188.351562 67.117188 L 190.003906 67.269531 L 190.753906 66.367188 L 192.402344 66.96875 L 196.757812 63.367188 L 199.308594 62.167969 L 199.605469 61.566406 L 200.65625 61.714844 L 201.859375 61.414062 L 202.910156 61.867188 L 204.558594 61.566406 L 204.410156 62.316406 L 205.308594 62.765625 L 205.910156 62.617188 L 206.0625 61.714844 L 207.410156 61.867188 L 207.863281 61.265625 L 208.613281 60.964844 L 208.160156 59.914062 L 209.964844 60.066406 L 210.714844 59.765625 L 213.265625 60.066406 L 215.367188 59.765625 L 216.117188 59.464844 L 216.417969 60.066406 L 217.167969 60.367188 L 219.117188 62.464844 L 219.71875 63.96875 L 220.320312 67.570312 L 220.320312 68.621094 L 221.070312 68.621094 L 221.820312 69.519531 L 221.070312 70.121094 L 220.167969 70.121094 L 218.515625 69.519531 L 217.46875 68.921875 L 215.664062 68.921875 L 214.914062 69.371094 L 214.164062 69.519531 L 214.164062 70.722656 L 214.914062 71.921875 L 214.765625 72.523438 L 216.117188 73.273438 L 216.117188 74.171875 L 216.566406 75.074219 L 216.867188 76.722656 L 219.417969 76.574219 L 219.867188 77.023438 L 221.519531 77.324219 L 221.519531 76.273438 L 223.320312 76.125 L 224.070312 76.273438 L 224.371094 77.023438 L 225.722656 76.722656 L 225.722656 77.625 L 227.222656 77.324219 L 227.523438 76.574219 L 229.472656 76.273438 L 229.625 75.222656 L 230.375 75.375 L 232.324219 76.273438 L 233.824219 76.722656 L 235.328125 76.425781 L 235.476562 75.824219 L 237.128906 75.671875 L 237.878906 75.074219 L 238.777344 74.921875 L 239.679688 74.324219 L 240.582031 74.023438 L 244.933594 71.472656 L 245.234375 70.722656 L 244.933594 70.121094 L 244.933594 69.070312 L 245.382812 68.769531 L 246.734375 69.070312 L 247.785156 68.46875 L 248.984375 68.320312 L 248.984375 67.269531 L 250.9375 68.019531 L 251.6875 67.417969 L 252.738281 67.871094 L 253.488281 67.117188 L 253.1875 66.367188 L 254.539062 66.519531 L 255.289062 66.820312 L 254.835938 68.019531 L 255.289062 68.621094 L 255.886719 71.171875 L 257.691406 71.171875 L 258.738281 70.121094 L 259.941406 70.269531 L 260.839844 70.722656 L 261.890625 71.921875 L 262.792969 71.921875 L 263.394531 72.371094 L 264.144531 72.070312 L 265.042969 72.371094 L 265.945312 72.222656 L 267.59375 72.972656 L 268.195312 72.523438 L 268.644531 71.621094 L 269.246094 71.769531 L 269.695312 72.820312 L 270.148438 71.921875 L 272.546875 71.769531 L 272.847656 71.621094 L 274.347656 72.070312 L 274.648438 71.320312 L 276.148438 71.921875 L 276.300781 70.570312 L 275.847656 70.269531 L 275.398438 68.621094 L 275.398438 67.269531 L 276.601562 67.269531 L 277.949219 66.21875 L 278.699219 66.21875 L 279.453125 66.96875 L 280.203125 66.667969 L 283.203125 66.519531 L 283.054688 66.066406 L 284.253906 65.769531 L 284.855469 65.167969 L 285.003906 64.265625 L 287.855469 64.71875 L 288.304688 63.816406 L 288.007812 63.367188 L 288.15625 62.464844 L 288.605469 61.867188 L 289.507812 61.714844 L 290.707031 62.765625 L 295.210938 63.667969 L 295.960938 62.917969 L 297.160156 63.367188 L 297.761719 63.066406 L 299.113281 63.667969 L 300.011719 65.769531 L 299.414062 66.367188 L 299.714844 67.417969 L 301.214844 68.46875 L 301.0625 69.371094 L 301.964844 69.21875 L 302.714844 69.519531 L 304.066406 68.917969 L 305.714844 68.769531 L 306.015625 68.019531 L 307.066406 67.867188 L 307.515625 67.417969 L 308.265625 67.417969 L 309.167969 66.820312 L 311.570312 67.867188 L 312.621094 68.769531 L 312.917969 69.371094 L 314.269531 69.96875 L 315.621094 70.269531 L 316.671875 70.269531 L 317.121094 69.070312 L 318.921875 68.917969 L 319.824219 69.820312 L 321.175781 68.917969 L 322.675781 68.917969 L 323.875 67.570312 L 324.625 67.269531 L 324.925781 66.519531 L 325.976562 66.820312 L 327.777344 65.46875 L 328.527344 65.46875 L 329.128906 66.066406 L 330.777344 66.066406 L 332.28125 68.019531 L 333.179688 68.167969 L 333.929688 69.671875 L 335.28125 70.421875 L 335.433594 71.769531 L 336.484375 72.972656 L 336.933594 74.171875 L 336.03125 75.523438 L 336.484375 76.722656 L 337.832031 77.023438 L 338.285156 77.023438 L 338.433594 75.671875 L 339.636719 75.972656 L 341.4375 76.273438 L 342.1875 77.175781 L 343.238281 77.625 L 343.085938 78.375 L 343.988281 78.375 L 344.4375 79.125 L 345.488281 79.425781 L 346.988281 78.824219 L 347.738281 79.726562 L 347.738281 80.328125 L 346.988281 80.628906 L 346.386719 82.277344 L 344.886719 83.480469 L 343.535156 83.929688 L 343.085938 84.378906 L 342.035156 84.679688 L 341.4375 84.53125 L 340.984375 85.429688 L 339.632812 85.878906 L 338.882812 85.878906 L 337.984375 89.03125 L 338.433594 91.28125 L 338.433594 92.035156 L 337.535156 93.082031 L 338.132812 93.835938 L 338.132812 94.734375 L 338.882812 96.535156 L 342.035156 96.386719 L 342.636719 98.335938 L 342.636719 100.289062 L 342.9375 101.339844 L 342.335938 102.539062 L 342.488281 103.738281 L 342.9375 104.488281 L 343.085938 106.140625 L 343.6875 106.742188 L 343.839844 107.492188 L 341.4375 108.242188 L 340.234375 109.292969 L 339.9375 110.191406 L 340.6875 111.542969 L 341.4375 111.695312 L 342.789062 111.09375 L 343.085938 110.644531 L 343.839844 110.34375 L 345.640625 110.792969 L 345.1875 111.394531 L 345.488281 112.445312 L 345.1875 112.894531 L 345.1875 113.945312 L 344.886719 117.097656 L 344.589844 117.695312 L 344.886719 118.296875 L 344.289062 119.199219 L 344.136719 120.097656 L 344.886719 120.847656 L 345.488281 123.101562 L 342.335938 123.851562 L 341.136719 125.5 L 340.386719 125.351562 L 338.886719 125.5 L 337.382812 126.25 L 335.882812 126.703125 L 336.484375 128.054688 L 337.085938 128.503906 L 337.085938 129.101562 L 336.332031 129.402344 L 335.882812 130.304688 L 336.332031 131.054688 L 337.683594 131.65625 L 338.285156 131.65625 L 338.585938 130.90625 L 341.585938 131.804688 L 342.335938 132.554688 L 342.035156 133.605469 L 342.488281 134.355469 L 342.035156 137.058594 L 342.488281 138.109375 L 341.886719 138.707031 L 341.4375 140.359375 L 340.6875 140.660156 L 339.335938 140.210938 L 339.183594 139.609375 L 338.285156 139.308594 L 337.535156 140.058594 L 336.785156 140.210938 L 336.632812 141.261719 L 338.285156 142.011719 L 339.035156 141.558594 L 340.234375 142.011719 L 340.535156 143.0625 L 339.632812 143.511719 L 339.035156 144.863281 L 337.832031 145.613281 L 336.484375 145.3125 L 336.484375 146.363281 L 337.234375 146.210938 L 338.734375 146.363281 L 339.933594 146.8125 L 339.632812 145.914062 L 339.035156 145.613281 L 339.632812 144.863281 L 341.285156 144.710938 L 342.484375 145.613281 L 342.1875 147.113281 L 343.535156 148.015625 L 343.988281 148.765625 L 346.089844 149.664062 L 347.4375 150.714844 L 346.988281 153.71875 L 347.289062 154.316406 L 349.691406 154.46875 L 351.492188 155.367188 L 351.640625 156.117188 L 352.390625 156.570312 L 353.742188 156.269531 L 354.34375 156.71875 L 354.644531 157.621094 L 355.09375 158.070312 L 356.144531 158.371094 L 356.59375 159.121094 L 356.746094 160.621094 L 355.695312 161.523438 L 354.34375 161.671875 L 352.390625 162.273438 L 353.292969 163.625 L 353.441406 164.222656 L 354.644531 164.972656 L 354.492188 165.425781 L 351.492188 167.527344 L 350.890625 168.425781 L 348.789062 168.578125 L 348.1875 168.425781 L 348.1875 167.226562 L 347.4375 166.625 L 345.488281 167.675781 L 344.886719 167.375 L 344.136719 165.574219 L 344.136719 164.523438 L 343.6875 163.625 L 343.085938 163.625 L 341.886719 164.675781 L 341.136719 165.722656 L 339.785156 166.175781 L 339.484375 166.625 L 338.433594 169.175781 L 337.234375 170.078125 L 336.03125 170.378906 L 335.582031 171.429688 L 335.882812 172.328125 L 335.730469 173.078125 L 334.230469 173.828125 L 333.480469 174.730469 L 333.332031 175.480469 L 333.628906 176.53125 L 333.179688 177.132812 L 333.03125 178.03125 L 331.980469 178.933594 L 332.28125 179.683594 L 331.078125 181.484375 L 330.929688 183.433594 L 331.226562 184.183594 L 331.980469 184.933594 L 333.929688 187.1875 L 334.378906 188.535156 L 334.230469 189.136719 L 333.179688 189.738281 L 332.429688 189.886719 L 331.226562 191.238281 L 330.476562 191.089844 L 330.027344 191.839844 Z M 331.074219 193.1875 " fill-opacity="1" fill-rule="nonzero"/></g></svg>